<?xml version="1.0" standalone="no"?>
<!DOCTYPE svg PUBLIC "-//W3C//DTD SVG 20010904//EN"
 "http://www.w3.org/TR/2001/REC-SVG-20010904/DTD/svg10.dtd">
<svg version="1.0" xmlns="http://www.w3.org/2000/svg"
 width="100.000000pt" height="100.000000pt" viewBox="0 0 100.000000 100.000000"
 preserveAspectRatio="xMidYMid meet">
<metadata>
Created by potrace 1.11, written by Peter Selinger 2001-2013
</metadata>
<g transform="translate(0.000000,100.000000) scale(0.100000,-0.100000)"
fill="#000000" stroke="none">
<path d="M268 958 c-2 -16 -9 -22 -20 -20 -13 2 -18 -4 -18 -23 0 -20 -5 -25
-25 -25 -20 0 -25 -5 -25 -24 0 -19 -4 -24 -20 -21 -19 4 -22 0 -24 -35 -1 -8
-10 -15 -21 -15 -13 0 -21 -8 -23 -22 -3 -17 -10 -23 -29 -23 -15 0 -23 -3
-20 -6 11 -12 -13 -43 -28 -38 -11 5 -15 -1 -15 -20 0 -19 5 -26 20 -26 11 0
21 -4 21 -10 1 -5 2 -16 3 -22 1 -7 11 -13 24 -12 17 0 22 -5 22 -23 0 -18 5
-23 26 -23 20 0 25 -4 22 -22 -2 -17 3 -24 20 -26 14 -2 22 -10 22 -23 0 -17
16 -24 43 -20 4 0 7 -10 7 -24 0 -18 5 -25 19 -25 13 0 21 -8 23 -22 3 -21 8
-23 78 -23 93 -1 111 3 108 24 -2 13 6 16 42 16 38 0 45 -3 45 -20 0 -14 6
-20 23 -19 17 1 22 -4 22 -22 0 -16 7 -24 23 -26 14 -2 22 -10 22 -23 0 -13 8
-21 23 -23 19 -3 22 -9 22 -46 0 -39 2 -43 23 -42 17 1 23 -5 25 -25 2 -21 7
-26 23 -22 15 4 19 0 19 -21 0 -21 5 -26 25 -26 18 0 25 -5 25 -20 0 -13 10
-24 26 -30 17 -7 24 -15 20 -25 -4 -12 7 -15 64 -15 l70 0 0 70 c0 38 -3 69
-7 69 -28 -4 -40 3 -39 24 1 17 -4 22 -21 21 -18 -1 -23 4 -23 22 0 19 -5 24
-26 24 -21 0 -24 4 -19 20 6 19 -2 25 -32 21 -8 -1 -13 9 -13 24 0 23 -4 25
-44 25 -39 0 -45 3 -48 23 -3 19 -9 22 -45 22 -41 -1 -47 4 -44 33 1 7 -9 12
-24 12 -20 0 -25 5 -25 24 0 18 -6 26 -22 28 -30 4 -33 38 -3 38 21 0 24 5 27
58 1 31 2 74 0 95 -3 32 -7 37 -28 37 -18 0 -24 5 -22 18 2 11 -4 18 -19 20
-14 2 -23 11 -25 25 -2 14 -10 22 -23 22 -11 1 -19 7 -17 14 4 19 -17 41 -34
34 -10 -4 -14 2 -14 21 0 21 -5 26 -25 26 -20 0 -24 5 -22 22 1 16 -3 23 -18
23 -13 0 -21 8 -23 23 -2 16 -10 22 -27 22 -17 0 -25 -6 -27 -22z m50 -96 c2
-15 9 -22 17 -18 16 6 28 -9 30 -36 2 -27 -38 -16 -45 13 -4 15 -12 23 -22 21
-20 -3 -32 14 -24 34 9 23 40 12 44 -14z m-48 -46 c0 -18 5 -23 23 -22 16 1
23 -5 25 -22 3 -17 9 -22 25 -20 12 2 21 8 20 13 -2 17 18 34 33 28 8 -3 14
-14 14 -24 0 -14 7 -19 25 -19 14 0 24 -3 24 -7 -3 -21 3 -31 21 -36 12 -3 20
-14 20 -26 0 -15 6 -21 24 -21 19 0 22 -4 19 -25 -3 -13 -8 -24 -12 -23 -21 2
-31 -4 -31 -22 0 -13 -7 -20 -20 -20 -11 0 -21 -4 -21 -10 -1 -5 -2 -16 -3
-22 0 -7 -7 -14 -13 -14 -7 -1 -17 -2 -23 -3 -5 0 -10 -10 -10 -20 0 -13 -8
-21 -22 -23 -13 -2 -24 -9 -24 -15 -1 -7 -2 -17 -3 -23 0 -5 -10 -10 -21 -10
-15 0 -20 7 -20 25 0 20 -5 25 -25 25 -18 0 -25 5 -25 20 0 13 -7 20 -20 20
-15 0 -20 7 -20 25 0 20 -5 25 -26 25 -21 0 -25 4 -22 23 2 16 9 22 26 21 17
-1 22 4 22 22 0 33 -47 35 -52 2 -2 -11 -11 -22 -20 -24 -17 -2 -32 21 -22 37
3 5 -6 9 -20 9 -36 0 -36 37 0 46 19 5 24 12 21 25 -4 15 0 19 19 19 19 0 24
5 24 24 0 18 5 23 22 22 15 -1 24 6 26 19 8 41 42 41 42 1z m687 -728 c-2 -13
-12 -23 -25 -25 -18 -2 -22 2 -22 22 0 20 5 25 25 25 20 0 24 -4 22 -22z"/>
<path d="M180 726 c0 -18 5 -23 18 -21 9 2 20 4 25 4 4 1 7 10 7 21 0 15 -7
20 -25 20 -20 0 -25 -5 -25 -24z"/>
<path d="M270 732 c0 -25 7 -31 31 -25 29 8 25 43 -6 43 -18 0 -25 -5 -25 -18z"/>
<path d="M362 733 c6 -37 48 -38 48 -2 0 14 -7 19 -25 19 -19 0 -25 -5 -23
-17z"/>
<path d="M230 685 c0 -18 5 -25 19 -25 12 0 21 -8 23 -22 2 -13 12 -22 26 -24
18 -3 22 1 22 21 0 20 -5 25 -25 25 -20 0 -25 5 -25 25 0 18 -5 25 -20 25 -15
0 -20 -7 -20 -25z"/>
<path d="M410 686 c0 -18 -6 -26 -22 -28 -24 -3 -32 -17 -20 -36 12 -17 42 -4
42 18 0 12 9 20 23 22 14 2 23 11 25 26 3 18 -1 22 -22 22 -21 0 -26 -5 -26
-24z"/>
<path d="M456 651 c-10 -16 5 -41 25 -41 14 0 19 7 19 25 0 18 -5 25 -19 25
-11 0 -22 -4 -25 -9z"/>
<path d="M326 612 c-3 -3 -6 -14 -6 -24 0 -13 -7 -18 -25 -18 -20 0 -25 -5
-25 -25 0 -20 5 -25 25 -25 20 0 25 5 25 25 0 18 5 25 20 25 19 0 22 4 24 32
1 12 -29 20 -38 10z"/>
<path d="M362 545 c3 -34 41 -31 46 3 3 18 -1 22 -22 22 -21 0 -25 -4 -24 -25z"/>
</g>
</svg>
