<?xml version="1.0" encoding="UTF-8"?>
<svg width="93px" height="90px" viewBox="0 0 93 90" version="1.1" xmlns="http://www.w3.org/2000/svg" xmlns:xlink="http://www.w3.org/1999/xlink">
    <!-- Generator: Sketch 52.4 (67378) - http://www.bohemiancoding.com/sketch -->
    <title>fly 2</title>
    <desc>Created with Sketch.</desc>
    <g id="Page-1" stroke="none" stroke-width="1" fill="none" fill-rule="evenodd">
        <g id="fly" fill="#000000" fill-rule="nonzero">
            <g id="Group">
                <g id="a-link">
                    <g>
                        <g id="a">
                            <path d="M44.000625,3.10714286 C39.001875,-1.25 33.51875,0.607142857 27.55125,8.67857143 C24.99375,12.1428571 23.579375,17.7857143 23.308125,25.6071429 C23.075625,31.1428571 23.385625,36.4821429 24.238125,41.625 C25.051875,45.9821429 25.76875,48.9464286 26.38875,50.5178571 C21.0025,51.9107143 16.39125,53.9464286 12.555,56.625 C12.12875,56.875 11.7025,57.1428571 11.27625,57.4285714 C7.78875,57.7142857 5.056875,58.9642857 3.080625,61.1785714 C1.491875,63 0.50375,65.4285714 0.11625,68.4642857 C-0.0775,69.8928571 0.445625,71.6071429 1.685625,73.6071429 C2.925625,75.6428571 4.65,77.1071429 6.85875,78 C6.93625,78.1071429 7.033125,78.2142857 7.149375,78.3214286 C10.598125,82.4285714 16.23625,85.4821429 24.06375,87.4821429 L32.43375,88.7142857 C45.26,90.1428571 56.904375,88.5178571 67.366875,83.8392857 C76.860625,79.5892857 81.95625,74.75 82.65375,69.3214286 C82.88625,67.3928571 82.169375,65.1785714 80.503125,62.6785714 C78.643125,59.8928571 75.98875,57.4107143 72.54,55.2321429 C67.735,52.2321429 62.155,50.1964286 55.8,49.125 C62,48.8035714 68.994375,46.7142857 76.783125,42.8571429 C87.555625,37.5357143 92.941875,30.9642857 92.941875,23.1428571 C92.941875,20.7857143 92.26375,18.3392857 90.9075,15.8035714 C89.3575,12.8392857 87.284375,10.75 84.688125,9.53571429 C77.596875,6.21428571 68.761875,10.125 58.183125,21.2678571 C55.393125,24.2321429 51.6925,28.3392857 47.08125,33.5892857 C47.275,33.0178571 47.46875,32.4285714 47.6625,31.8214286 C48.32125,29.8214286 48.825,27.4821429 49.17375,24.8035714 C49.3675,23.125 49.580625,20.625 49.813125,17.3035714 C49.968125,15.1607143 49.5225,12.7321429 48.47625,10.0178571 C47.3525,7.05357143 45.860625,4.75 44.000625,3.10714286 Z M39.001875,5.08928571 C42.101875,5.08928571 44.349375,7 45.744375,10.8214286 C46.596875,13.1071429 46.906875,16.2857143 46.674375,20.3571429 C46.441875,24.3928571 45.744375,28.5357143 44.581875,32.7857143 C43.458125,36.7142857 40.26125,41.7142857 34.99125,47.7857143 C34.99125,46.8928571 34.99125,46.4107143 34.99125,46.3392857 C34.99125,45.0535714 35.14625,43.2678571 35.45625,40.9821429 C35.7275,38.6964286 35.863125,37.125 35.863125,36.2678571 L36.0375,34.7142857 C35.92125,34.2142857 35.805,33.9107143 35.68875,33.8035714 L33.36375,41.4107143 C33.17,42.1964286 32.86,43.5892857 32.43375,45.5892857 C32.12375,46.9464286 31.93,47.9285714 31.8525,48.5357143 C30.18625,47.6428571 28.849375,45.6964286 27.841875,42.6964286 C26.369375,38.5535714 25.575,34.4821429 25.45875,30.4821429 C25.30375,26.4464286 25.749375,22.2678571 26.795625,17.9464286 C28.926875,9.375 32.995625,5.08928571 39.001875,5.08928571 Z M78.00375,11.3571429 C82.18875,11.3571429 85.3275,13.1071429 87.42,16.6071429 C88.77625,18.8571429 89.454375,21.0178571 89.454375,23.0892857 C89.454375,32.5178571 80.56125,39.6607143 62.775,44.5178571 C58.59,45.6607143 51.03375,46.9285714 40.10625,48.3214286 C40.95875,47.8571429 41.946875,47.3214286 43.070625,46.7142857 C47.798125,44.1071429 50.510625,42.25 51.208125,41.1428571 C47.139375,42.8214286 43.865,44.1964286 41.385,45.2678571 C40.5325,45.625 39.776875,45.9642857 39.118125,46.2857143 C40.551875,44.7857143 42.024375,43.125 43.535625,41.3035714 C48.960625,34.7678571 51.77,31.3928571 51.96375,31.1785714 C58.6675,24.0357143 62.27125,20.2321429 62.775,19.7678571 C68.85875,14.1607143 73.935,11.3571429 78.00375,11.3571429 Z M51.091875,51.2678571 C60.469375,52.0178571 67.948125,54.6607143 73.528125,59.1964286 C77.984375,62.8392857 80.01875,66.0892857 79.63125,68.9464286 C79.01125,73.875 73.2375,78.3928571 62.31,82.5 C51.42125,86.6785714 41.81125,88.0714286 33.48,86.6785714 L24.76125,85.1785714 C18.5225,83.5 13.83375,81.1785714 10.695,78.2142857 C10.34625,77.8571429 9.9975,77.4821429 9.64875,77.0892857 C7.24625,74.4107143 6.219375,71.6964286 6.568125,68.9464286 C7.149375,64.5178571 11.101875,60.4107143 18.425625,56.625 C27.376875,51.9821429 38.265625,50.1964286 51.091875,51.2678571 Z M34.06125,70.1785714 C34.6425,65.7142857 33.79,62.3214286 31.50375,60 C29.45,58.0357143 26.679375,57.1607143 23.191875,57.375 C19.859375,57.5178571 16.85625,58.6071429 14.1825,60.6428571 C11.27625,62.7857143 9.629375,65.3571429 9.241875,68.3571429 C9.009375,70.3928571 9.396875,72.5 10.404375,74.6785714 C12.148125,78.5357143 15.558125,80.7321429 20.634375,81.2678571 C26.098125,81.875 29.95375,80.25 32.20125,76.3928571 C32.9375,75.1785714 33.48,73.8214286 33.82875,72.3214286 C33.98375,70.9642857 34.06125,70.25 34.06125,70.1785714 Z M27.260625,67.3392857 C26.446875,68.6964286 25.245625,69.2857143 23.656875,69.1071429 C22.300625,68.9642857 21.254375,68.3928571 20.518125,67.3928571 C19.936875,66.6071429 19.704375,65.9107143 19.820625,65.3035714 C20.169375,62.4821429 21.680625,61.2321429 24.354375,61.5535714 C27.066875,61.875 28.2875,63.0535714 28.01625,65.0892857 C27.9,65.9107143 27.648125,66.6607143 27.260625,67.3392857 Z" id="Shape"></path>
                        </g>
                    </g>
                </g>
            </g>
        </g>
    </g>
</svg>