<?xml version="1.0" encoding="UTF-8"?>
<svg width="86px" height="90px" viewBox="0 0 86 90" version="1.1" xmlns="http://www.w3.org/2000/svg" xmlns:xlink="http://www.w3.org/1999/xlink">
    <!-- Generator: Sketch 52.4 (67378) - http://www.bohemiancoding.com/sketch -->
    <title>swatter</title>
    <desc>Created with Sketch.</desc>
    <g id="Page-1" stroke="none" stroke-width="2" fill="none" fill-rule="evenodd">
        <g id="swatter" fill="black">
            <g id="Group">
                <path d="M82.513,26.139 C83.763,24.954 84.466,23.458 84.86,22.187 C85.962,18.622 84.921,14.801 81.842,11.135 C79.427,8.256 75.799,5.535 71.633,3.479 C66.353,0.875 59.349,-0.979 56.98,2.361 C56.711,2.741 56.525,3.157 56.417,3.608 L51.233,11.09 C49.039,9.309 47.662,8.082 47.632,8.057 C47.277,7.737 46.776,7.59 46.29,7.67 C45.806,7.753 45.389,8.053 45.149,8.482 L23.812,47.306 C23.805,47.318 23.795,47.33 23.788,47.342 L0.929,87.026 C0.546,87.691 0.685,88.535 1.26,89.039 C1.263,89.043 1.268,89.048 1.272,89.05 C1.858,89.556 2.719,89.571 3.324,89.089 L39.941,59.965 C39.992,59.924 40.039,59.876 40.087,59.83 C40.206,59.736 40.325,59.642 40.446,59.547 C41.025,59.483 41.547,59.101 41.767,58.518 C41.768,58.514 41.769,58.508 41.771,58.504 C63.908,41.073 81.843,26.882 82.055,26.715 C82.257,26.555 82.409,26.355 82.513,26.139 Z M57.736,41.824 C56.524,41.325 54.087,39.733 51.845,38.069 C52.922,36.729 54.828,34.343 57.542,30.9 C60.819,33.367 63.703,34.78 65.673,35.561 C63.254,37.471 60.592,39.572 57.736,41.824 Z M70.209,6.366 C73.067,7.777 75.357,9.307 77.128,10.862 C81.36,14.58 82.647,18.447 81.786,21.235 C81.177,23.205 80.144,24.329 78.542,24.774 C75.555,25.603 70.551,24.018 64.209,20.284 L67.041,17.06 C67.605,16.416 67.568,15.446 66.957,14.849 C58.411,6.479 59.59,4.243 59.605,4.223 C60.172,3.425 64.312,3.457 70.209,6.366 Z M57.284,8.005 C58.414,10.239 60.519,12.917 63.625,16.068 L61.435,18.567 C60.921,18.235 60.402,17.891 59.876,17.536 C57.656,16.035 55.564,14.491 53.759,13.093 L57.284,8.005 Z M20.877,58.844 C21.124,58.701 21.336,58.495 21.483,58.227 L22.781,55.865 C22.95,56.039 23.16,56.182 23.406,56.27 C25.043,56.848 26.274,57.829 27.001,58.526 C26.373,59.392 25.256,60.818 23.497,62.69 C22.459,61.761 21.218,60.815 20.025,60.326 L20.877,58.844 Z M7.934,81.312 L18.331,63.263 C18.408,63.253 18.482,63.242 18.558,63.225 C18.826,63.278 20.003,63.652 22.391,66.089 C22.695,66.399 23.106,66.571 23.537,66.571 C23.97,66.572 24.384,66.398 24.686,66.093 C28.865,61.854 30.373,59.287 30.433,59.179 C30.756,58.623 30.717,57.929 30.332,57.414 C30.247,57.299 28.166,54.541 24.478,53.235 C24.405,53.21 24.332,53.19 24.257,53.175 L47.011,11.775 C49.135,13.576 53.259,16.943 58.045,20.181 C65.001,24.887 70.719,27.527 75.13,28.086 C73.376,29.473 71.196,31.196 68.668,33.193 C67.467,32.858 63.309,31.485 58.287,27.395 C57.951,27.124 57.521,26.996 57.094,27.043 C56.664,27.09 56.271,27.309 56.005,27.647 C50.933,34.097 48.331,37.298 48.306,37.33 C48.034,37.663 47.906,38.095 47.953,38.525 C47.998,38.923 48.188,39.29 48.49,39.556 C48.514,39.576 48.537,39.595 48.561,39.614 C49.641,40.459 52.504,42.64 54.959,44.011 C54.136,44.662 53.298,45.323 52.447,45.994 C45.79,44.486 37.872,35.309 37.79,35.216 C37.214,34.54 36.198,34.462 35.522,35.039 C34.848,35.615 34.767,36.634 35.345,37.307 C35.52,37.513 37.592,39.917 40.568,42.53 C43.075,44.732 46.225,47.078 49.418,48.38 C48.421,49.165 47.41,49.962 46.388,50.768 C40.325,48.252 34.888,41.696 34.805,41.593 C34.242,40.908 33.229,40.806 32.541,41.367 C31.853,41.931 31.752,42.944 32.314,43.631 C32.451,43.799 34.265,45.992 37.01,48.405 C38.85,50.019 41.109,51.73 43.56,52.996 C42.311,53.982 41.04,54.978 39.758,55.989 C36.527,54.481 34.077,51.992 32.073,49.951 L31.731,49.601 C31.106,48.973 30.089,48.96 29.457,49.583 C28.822,50.207 28.815,51.225 29.438,51.859 L29.776,52.204 C30.672,53.115 31.694,54.155 32.868,55.185 C34.072,56.244 35.436,57.288 36.985,58.173 C33.889,60.608 30.726,63.098 27.527,65.613 C27.383,65.724 27.265,65.86 27.171,66.007 L7.934,81.312 Z" id="Shape" fill-rule="nonzero"></path>
                <path d="M43.974,21.988 C45.769,23.565 50.048,27.26 51.322,27.798 C52.143,28.142 53.093,27.761 53.439,26.944 C53.783,26.125 53.406,25.186 52.588,24.839 C51.905,24.507 48.686,21.846 46.092,19.568 C46.09,19.565 46.089,19.565 46.086,19.561 C45.419,18.977 44.401,19.042 43.817,19.708 C43.229,20.377 43.294,21.393 43.964,21.979 C43.967,21.982 43.97,21.985 43.974,21.988 Z" id="Path"></path>
                <path d="M41.421,27.184 C43.216,28.76 47.495,32.455 48.77,32.993 C49.587,33.338 50.54,32.957 50.885,32.138 C51.23,31.319 50.856,30.379 50.034,30.034 C49.351,29.703 46.13,27.028 43.534,24.758 C42.865,24.171 41.849,24.238 41.263,24.905 C40.676,25.574 40.742,26.589 41.41,27.176 C41.414,27.176 41.417,27.179 41.421,27.184 Z" id="Path"></path>
                <path d="M39.12,32.75 C41.083,34.472 44.424,37.328 45.551,37.803 C46.37,38.146 47.322,37.765 47.665,36.948 C48.012,36.129 47.637,35.189 46.814,34.845 C46.139,34.514 43.027,31.921 40.533,29.704 C40.531,29.704 40.529,29.7 40.527,29.7 C39.862,29.116 38.85,29.179 38.263,29.839 C37.673,30.504 37.732,31.522 38.398,32.111 C38.606,32.296 38.85,32.512 39.12,32.75 Z" id="Path"></path>
            </g>
        </g>
    </g>
</svg>